<svg width="525" height="415" viewBox="0 0 525 415" fill="none" xmlns="http://www.w3.org/2000/svg">
<path fill-rule="evenodd" clip-rule="evenodd" d="M524.613 242.014V377.951C468.291 402.441 401.52 414.218 327.992 414.218C256.287 414.218 172.429 381.154 85.8216 319.072L85.1367 318.837C147.886 345.955 184.135 351.665 247.345 358.202C328.793 359.396 374.901 347.739 427.672 316.108V178.98H429.629L524.613 242.014Z" fill="#C80C47"/>
<path fill-rule="evenodd" clip-rule="evenodd" d="M398.175 221.161L398.527 294.506C350.472 264.034 302.439 233.569 254.392 203.097C238.201 193.428 233.273 185.944 230.453 179.193H360.331C397.29 180.11 397.29 202.181 398.175 221.161Z" fill="#C80C47"/>
<path fill-rule="evenodd" clip-rule="evenodd" d="M417.908 67.8946C394.735 62.4752 370.42 59.8341 346.825 59.8341C268.095 59.8341 202.936 81.0759 164.067 115.513C105.272 167.382 75.0181 251.351 136.928 312.892C96.3653 298.974 58.2016 276.264 39.2603 258.383C15.6512 237.278 0.390625 206.507 0.390625 171.635C0.390625 144.383 11.2785 115.657 29.9354 90.0145C50.4256 64.3718 77.7049 41.5178 113.326 26.4258C152.192 9.72176 196.997 0.783203 245.336 0.783203C306.392 0.783203 352.188 8.98076 417.905 39.3192V67.8946H417.908Z" fill="#C80C47"/>
</svg>